<?xml version="1.0" encoding="UTF-8"?>
<svg width="2716px" height="1024px" viewBox="0 0 2716 1024" version="1.1" xmlns="http://www.w3.org/2000/svg" xmlns:xlink="http://www.w3.org/1999/xlink">
    <title>logo-violet</title>
    <defs>
        <linearGradient x1="66.0716031%" y1="106.43771%" x2="4.02625087%" y2="-14.9259259%" id="linearGradient-1">
            <stop stop-color="#7D43FF" offset="0%"></stop>
            <stop stop-color="#FFFFFF" offset="100%"></stop>
        </linearGradient>
        <linearGradient x1="60.0702185%" y1="4.42746035%" x2="9.45136282%" y2="107.844854%" id="linearGradient-2">
            <stop stop-color="#FFFFFF" offset="0%"></stop>
            <stop stop-color="#7D43FF" offset="100%"></stop>
        </linearGradient>
    </defs>
    <g id="Kin-Logo" stroke="none" stroke-width="1" fill="none" fill-rule="evenodd">
        <g id="logo-violet" fill-rule="nonzero">
            <g id="Letters" transform="translate(1155.000000, 0.000000)" fill="#7546F6">
                <polygon id="Path" points="0 54.3381402 192.460202 0 192.460202 663.540742 194.9874 664.816638 412.775746 399.561704 631.855771 399.561704 393.793678 678.776436 649.5836 1024 421.667741 1024 194.9874 705.420137 192.460202 706.696033 192.460202 1024 0 1024"></polygon>
                <path d="M793.503957,92 C854.559149,92 905.422806,141.451225 905.422806,202.318597 C905.422806,263.185969 854.559149,312.637194 793.503957,312.637194 C732.448764,312.637194 681.566304,263.204715 681.566304,202.318597 C681.566304,141.432479 732.448764,92 793.503957,92 Z M696.834803,400.142242 L890.154307,400.142242 L890.154307,1024 L696.834803,1024 L696.834803,400.142242 L696.834803,400.142242 Z" id="Shape"></path>
                <path d="M956.387572,398.97255 L1146.92743,398.97255 L1146.92743,456.139809 L1149.46245,457.41687 C1197.74056,418.034563 1263.80139,385 1342.53733,385 C1408.57938,385 1467.01636,407.874416 1506.39372,448.533784 C1544.49418,489.174372 1561,543.806289 1561,634.008112 L1561,1024 L1367.9439,1024 L1367.9439,665.765614 C1367.9439,618.758501 1361.57817,595.902866 1346.34926,578.099133 C1329.82466,559.0559 1306.97189,551.431095 1280.28843,551.431095 C1230.7522,551.431095 1183.76977,576.822072 1149.46245,603.508891 L1149.46245,1024 L956.40635,1024 L956.40635,398.97255 L956.387572,398.97255 Z" id="Path"></path>
            </g>
            <g id="Icon">
                <polygon id="Path" fill="#7546F6" points="886 255.98 443 511.99862 885.982777 768"></polygon>
                <polygon id="Path" fill="url(#linearGradient-1)" points="886 768 443 512 443 1024"></polygon>
                <polygon id="Path" fill="url(#linearGradient-2)" points="443 0 443 512 886 255.991381"></polygon>
                <polygon id="Path" fill="#7546F6" points="0 255.99569 0 768.00431 443.2 1024 443.2 0"></polygon>
            </g>
        </g>
    </g>
</svg>